# xmcd
#
# Track frame offsets:
#	150
#	16620
#	37165
#	68260
#	92860
#	108430
#	143057
#	159850
#	193212
#	212875
#	230352
#
# Disc length: 3432 seconds
#
# Revision: 0
# Processed by: cddbd v1.4PL0 Copyright (c) Steve Scherf et al.
# Submitted via: dBpowerAMP V4.0
#
DISCID=8b0d660b
DTITLE=Alberta Adams - Say Baby Say
DYEAR=2000
DGENRE=Blues
TTITLE0=Say Baby Say
TTITLE1=No Good Man
TTITLE2=I Want A Man
TTITLE3=We Ain't Makin' Honey
TTITLE4=Sax Man
TTITLE5=I Cried My Last Tear
TTITLE6=Don't Worry Me
TTITLE7=Everybody Got Their Hand Out
TTITLE8=Take Me With You
TTITLE9=That Dog
TTITLE10=Nothing More To Say
EXTD=
EXTT0=
EXTT1=
EXTT2=
EXTT3=
EXTT4=
EXTT5=
EXTT6=
EXTT7=
EXTT8=
EXTT9=
EXTT10=
PLAYORDER=
